<svg height="511pt" viewBox="-86 0 511 511.99888" width="511pt" xmlns="http://www.w3.org/2000/svg"><path d="m289.4375 70.707031v-55.707031c0-4.648438-2.160156-9.039062-5.84375-11.878906s-8.476562-3.8125-12.976562-2.625l-258.9375 68.144531c-1.671876.4375-3.191407 1.152344-4.550782 2.066406zm0 0"/><path d="m.5 100.707031v396.292969c0 4.464844 2.179688 8.976562 5.71875 11.769531 2.554688 2.015625 5.980469 3.226563 9.28125 3.230469h309.449219c8.28125 0 15-6.71875 15-15v-381.292969c0-8.285156-6.71875-15-15-15zm128.691406 69.171875c22.574219 0 40.882813 18.167969 41.03125 40.636719.089844-22.515625 18.421875-40.742187 41.03125-40.742187 22.660156 0 41.03125 18.316406 41.035156 40.910156 0 13.03125-6.902343 22.691406-15.640624 32.121094h.011718l-66.441406 70.414062-66.371094-70.273438c-7.339844-8.863281-15.6875-19.105468-15.6875-32.15625 0-22.59375 18.371094-40.910156 41.03125-40.910156zm100.207032 211.984375c0 8.285157-6.714844 15-15 15h-88.351563c-8.28125 0-15-6.714843-15-15 0-8.285156 6.71875-15 15-15h88.351563c8.285156 0 15 6.714844 15 15zm-129.246094 31.5625h140.140625c8.285156 0 15 6.71875 15 15 0 8.285157-6.714844 15-15 15h-140.140625c-8.28125 0-15-6.714843-15-15 0-8.28125 6.71875-15 15-15zm0 0"/></svg>